<?xml version="1.0" encoding="UTF-8"?>
<svg id="Layer_1" xmlns="http://www.w3.org/2000/svg" version="1.1" viewBox="0 0 595.28 841.89">
  <!-- Generator: Adobe Illustrator 29.8.1, SVG Export Plug-In . SVG Version: 2.1.1 Build 2)  -->
  <defs>
    <style>
      .st0 {
        fill: #a76f6b;
      }

      .st1 {
        stroke: #a7a9ac;
      }

      .st1, .st2, .st3 {
        stroke-miterlimit: 10;
      }

      .st1, .st3 {
        fill: #a7a9ac;
      }

      .st4 {
        fill: #c98581;
      }

      .st2 {
        fill: #d28a87;
        stroke: #c8c7c4;
      }

      .st3 {
        stroke: #c4c6c8;
      }

      .st5 {
        fill: #8f9194;
      }
    </style>
  </defs>
  <path class="st3" d="M382.22,147h-180.98c-9.39,0-17.01,7.61-17.01,17.01v335.98c0,9.39,7.61,17.01,17.01,17.01h180.98c9.39,0,17.01-7.61,17.01-17.01V164.01c0-9.39-7.61-17.01-17.01-17.01ZM233.94,490.46c-10.4,0-18.83-8.43-18.83-18.83s8.43-18.83,18.83-18.83,18.83,8.43,18.83,18.83-8.43,18.83-18.83,18.83ZM233.94,351.15c-10.4,0-18.83-8.43-18.83-18.83s8.43-18.83,18.83-18.83,18.83,8.43,18.83,18.83-8.43,18.83-18.83,18.83ZM233.94,211.19c-10.4,0-18.83-8.43-18.83-18.83s8.43-18.83,18.83-18.83,18.83,8.43,18.83,18.83-8.43,18.83-18.83,18.83ZM291.4,243.43c10.4,0,18.83,8.43,18.83,18.83s-8.43,18.83-18.83,18.83-18.83-8.43-18.83-18.83,8.43-18.83,18.83-18.83h0ZM292.05,428.66c-10.4,0-18.83-8.43-18.83-18.83s8.43-18.83,18.83-18.83,18.83,8.43,18.83,18.83-8.43,18.83-18.83,18.83ZM348.87,491.11c-10.4,0-18.83-8.43-18.83-18.83s8.43-18.83,18.83-18.83,18.83,8.43,18.83,18.83-8.43,18.83-18.83,18.83ZM326.22,331.68c0-10.4,8.43-18.83,18.83-18.83s18.83,8.43,18.83,18.83-8.43,18.83-18.83,18.83-18.83-8.43-18.83-18.83ZM349.51,210.55c-10.4,0-18.83-8.43-18.83-18.83s8.43-18.83,18.83-18.83,18.83,8.43,18.83,18.83-8.43,18.83-18.83,18.83Z"/>
  <g>
    <path class="st5" d="M295.84,281.96c-3.47,1.08-7.72,1.42-11.24.27v108.68c1.95-.68,4.04-1.07,6.22-1.07,2.41,0,4.7.47,6.82,1.29v-110.15c-.52.43-1.13.78-1.8.99h0Z"/>
    <path class="st5" d="M295.66,430.27c-3.85.37-7.53-.31-11.06-1.78v87.99h13.04v-86.73c-.61.27-1.28.45-1.98.52h0Z"/>
    <path class="st5" d="M290.82,242.68c2.41,0,4.7.47,6.82,1.29v-96.46h-13.04v96.24c1.95-.68,4.04-1.07,6.22-1.07h0Z"/>
  </g>
  <path class="st1" d="M291.12,238.33c-12.95,0-23.45,10.73-23.45,23.96s10.5,23.96,23.45,23.96,23.45-10.73,23.45-23.96-10.5-23.96-23.45-23.96h0ZM291.12,281.09c-10.4,0-18.83-8.43-18.83-18.83s8.43-18.83,18.83-18.83,18.83,8.43,18.83,18.83-8.43,18.83-18.83,18.83Z"/>
  <path class="st1" d="M291.12,385.94c-12.95,0-23.45,10.73-23.45,23.96s10.5,23.96,23.45,23.96,23.45-10.73,23.45-23.96-10.5-23.96-23.45-23.96ZM291.73,428.7c-10.4,0-18.83-8.43-18.83-18.83s8.43-18.83,18.83-18.83,18.83,8.43,18.83,18.83-8.43,18.83-18.83,18.83Z"/>
  <g>
    <circle class="st2" cx="233.94" cy="192.48" r="18.83"/>
    <g>
      <g>
        <polygon class="st0" points="244.21 193.88 233.84 204.18 224.24 194.65 234.61 184.35 244.21 193.88"/>
        <ellipse class="st0" cx="239.42" cy="189.43" rx="7.46" ry="7.03" transform="translate(-65.42 206.04) rotate(-41.47)"/>
        <ellipse class="st0" cx="228.49" cy="189.7" rx="7.03" ry="7.46" transform="translate(-64.96 235.28) rotate(-48.53)"/>
      </g>
      <g>
        <polygon class="st4" points="243.52 195.93 234.02 204.53 225.18 196.52 234.68 187.91 243.52 195.93"/>
        <path class="st4" d="M243.39,196.06c-2.59,2.35-6.68,2.46-9.13.24s-2.33-5.92.27-8.27,6.68-2.46,9.13-.24,2.33,5.92-.27,8.27Z"/>
        <path class="st4" d="M233.68,188.21c2.59,2.35,2.71,6.05.27,8.27-2.45,2.22-6.54,2.11-9.13-.24s-2.71-6.05-.27-8.27c2.45-2.22,6.54-2.11,9.13.24Z"/>
      </g>
    </g>
  </g>
</svg>