<?xml version="1.0" encoding="UTF-8"?>
<svg id="Layer_1" xmlns="http://www.w3.org/2000/svg" version="1.1" viewBox="0 0 595.28 841.89">
  <!-- Generator: Adobe Illustrator 29.8.1, SVG Export Plug-In . SVG Version: 2.1.1 Build 2)  -->
  <defs>
    <style>
      .st0 {
        fill: #8bcb8a;
        stroke: #c4c4c7;
      }

      .st0, .st1, .st2, .st3, .st4 {
        stroke-miterlimit: 10;
      }

      .st5 {
        fill: #a69f6b;
      }

      .st6 {
        fill: #8f9194;
      }

      .st7 {
        fill: #a76f6b;
      }

      .st1 {
        fill: #d2c786;
        stroke: #c4c7c5;
      }

      .st8 {
        fill: #6aa771;
      }

      .st9 {
        fill: #c98581;
      }

      .st2 {
        fill: #d28a87;
        stroke: #c8c7c4;
      }

      .st10 {
        fill: #82c888;
      }

      .st3 {
        stroke: #c4c6c8;
      }

      .st3, .st4 {
        fill: #a7a9ac;
      }

      .st4 {
        stroke: #a7a9ac;
      }

      .st11 {
        fill: #c9bf81;
      }
    </style>
  </defs>
  <path class="st3" d="M382.22,147h-180.98c-9.39,0-17.01,7.61-17.01,17.01v335.98c0,9.39,7.61,17.01,17.01,17.01h180.98c9.39,0,17.01-7.61,17.01-17.01V164.01c0-9.39-7.61-17.01-17.01-17.01ZM233.94,490.46c-10.4,0-18.83-8.43-18.83-18.83s8.43-18.83,18.83-18.83,18.83,8.43,18.83,18.83-8.43,18.83-18.83,18.83ZM233.94,351.15c-10.4,0-18.83-8.43-18.83-18.83s8.43-18.83,18.83-18.83,18.83,8.43,18.83,18.83-8.43,18.83-18.83,18.83ZM233.94,211.19c-10.4,0-18.83-8.43-18.83-18.83s8.43-18.83,18.83-18.83,18.83,8.43,18.83,18.83-8.43,18.83-18.83,18.83ZM291.4,243.43c10.4,0,18.83,8.43,18.83,18.83s-8.43,18.83-18.83,18.83-18.83-8.43-18.83-18.83,8.43-18.83,18.83-18.83ZM292.05,428.66c-10.4,0-18.83-8.43-18.83-18.83s8.43-18.83,18.83-18.83,18.83,8.43,18.83,18.83-8.43,18.83-18.83,18.83ZM348.87,491.11c-10.4,0-18.83-8.43-18.83-18.83s8.43-18.83,18.83-18.83,18.83,8.43,18.83,18.83-8.43,18.83-18.83,18.83ZM326.22,331.68c0-10.4,8.43-18.83,18.83-18.83s18.83,8.43,18.83,18.83-8.43,18.83-18.83,18.83-18.83-8.43-18.83-18.83ZM349.51,210.55c-10.4,0-18.83-8.43-18.83-18.83s8.43-18.83,18.83-18.83,18.83,8.43,18.83,18.83-8.43,18.83-18.83,18.83Z"/>
  <g>
    <path class="st6" d="M295.84,281.96c-3.47,1.08-7.72,1.42-11.24.27v108.68c1.95-.68,4.04-1.07,6.22-1.07,2.41,0,4.7.47,6.82,1.29v-110.15c-.52.43-1.13.78-1.8.99Z"/>
    <path class="st6" d="M295.66,430.27c-3.85.37-7.53-.31-11.06-1.78v87.99h13.04v-86.73c-.61.27-1.28.45-1.98.52Z"/>
    <path class="st6" d="M290.82,242.68c2.41,0,4.7.47,6.82,1.29v-96.46h-13.04v96.24c1.95-.68,4.04-1.07,6.22-1.07Z"/>
  </g>
  <path class="st4" d="M291.12,238.33c-12.95,0-23.45,10.73-23.45,23.96s10.5,23.96,23.45,23.96,23.45-10.73,23.45-23.96-10.5-23.96-23.45-23.96ZM291.12,281.09c-10.4,0-18.83-8.43-18.83-18.83s8.43-18.83,18.83-18.83,18.83,8.43,18.83,18.83-8.43,18.83-18.83,18.83Z"/>
  <path class="st4" d="M291.12,385.94c-12.95,0-23.45,10.73-23.45,23.96s10.5,23.96,23.45,23.96,23.45-10.73,23.45-23.96-10.5-23.96-23.45-23.96ZM291.73,428.7c-10.4,0-18.83-8.43-18.83-18.83s8.43-18.83,18.83-18.83,18.83,8.43,18.83,18.83-8.43,18.83-18.83,18.83Z"/>
  <g>
    <circle class="st2" cx="233.94" cy="192.48" r="18.83"/>
    <g>
      <g>
        <polygon class="st7" points="244.21 193.88 233.84 204.18 224.24 194.65 234.61 184.35 244.21 193.88"/>
        <ellipse class="st7" cx="239.43" cy="189.45" rx="7.46" ry="7.03" transform="translate(-65.44 206.03) rotate(-41.47)"/>
        <ellipse class="st7" cx="228.49" cy="189.67" rx="7.03" ry="7.46" transform="translate(-64.94 235.3) rotate(-48.53)"/>
      </g>
      <g>
        <polygon class="st9" points="243.52 195.93 234.02 204.53 225.18 196.52 234.68 187.91 243.52 195.93"/>
        <path class="st9" d="M243.39,196.06c-2.59,2.35-6.68,2.46-9.13.24s-2.33-5.92.27-8.27,6.68-2.46,9.13-.24,2.33,5.92-.27,8.27Z"/>
        <path class="st9" d="M233.68,188.21c2.59,2.35,2.71,6.05.27,8.27-2.45,2.22-6.54,2.11-9.13-.24s-2.71-6.05-.27-8.27c2.45-2.22,6.54-2.11,9.13.24Z"/>
      </g>
    </g>
  </g>
  <g>
    <circle class="st0" cx="349.51" cy="191.72" r="18.83"/>
    <g>
      <g>
        <polygon class="st8" points="359.78 193.11 349.41 203.42 339.81 193.88 350.18 183.58 359.78 193.11"/>
        <ellipse class="st8" cx="355" cy="188.69" rx="7.46" ry="7.03" transform="translate(-35.96 282.37) rotate(-41.47)"/>
        <ellipse class="st8" cx="344.06" cy="188.91" rx="7.03" ry="7.46" transform="translate(-25.32 321.64) rotate(-48.53)"/>
      </g>
      <g>
        <polygon class="st10" points="359.09 195.16 349.59 203.77 340.75 195.76 350.25 187.15 359.09 195.16"/>
        <path class="st10" d="M358.96,195.3c-2.59,2.35-6.68,2.46-9.13.24s-2.33-5.92.27-8.27,6.68-2.46,9.13-.24,2.33,5.92-.27,8.27Z"/>
        <path class="st10" d="M349.25,187.45c2.59,2.35,2.71,6.05.27,8.27-2.45,2.22-6.54,2.11-9.13-.24s-2.71-6.05-.27-8.27c2.45-2.22,6.54-2.11,9.13.24Z"/>
      </g>
    </g>
  </g>
  <g>
    <circle class="st1" cx="291.12" cy="262.29" r="18.83"/>
    <g>
      <g>
        <polygon class="st5" points="301.39 263.69 291.01 273.99 281.41 264.46 291.79 254.16 301.39 263.69"/>
        <ellipse class="st5" cx="296.61" cy="259.26" rx="7.46" ry="7.03" transform="translate(-97.33 261.39) rotate(-41.47)"/>
        <ellipse class="st5" cx="285.67" cy="259.48" rx="7.03" ry="7.46" transform="translate(-97.94 301.73) rotate(-48.53)"/>
      </g>
      <g>
        <polygon class="st11" points="300.7 265.74 291.2 274.34 282.35 266.33 291.85 257.73 300.7 265.74"/>
        <path class="st11" d="M300.57,265.88c-2.59,2.35-6.68,2.46-9.13.24s-2.33-5.92.27-8.27,6.68-2.46,9.13-.24,2.33,5.92-.27,8.27Z"/>
        <path class="st11" d="M290.85,258.03c2.59,2.35,2.71,6.05.27,8.27-2.45,2.22-6.54,2.11-9.13-.24s-2.71-6.05-.27-8.27c2.45-2.22,6.54-2.11,9.13.24Z"/>
      </g>
    </g>
  </g>
  <g>
    <circle class="st0" cx="234.35" cy="332.32" r="18.83"/>
    <g>
      <g>
        <polygon class="st8" points="244.62 333.72 234.25 344.02 224.64 334.49 235.02 324.18 244.62 333.72"/>
        <ellipse class="st8" cx="239.84" cy="329.29" rx="7.46" ry="7.03" transform="translate(-157.93 241.35) rotate(-41.47)"/>
        <ellipse class="st8" cx="228.9" cy="329.51" rx="7.03" ry="7.46" transform="translate(-169.59 282.85) rotate(-48.53)"/>
      </g>
      <g>
        <polygon class="st10" points="243.93 335.77 234.43 344.37 225.59 336.36 235.09 327.75 243.93 335.77"/>
        <path class="st10" d="M243.8,335.9c-2.59,2.35-6.68,2.46-9.13.24s-2.33-5.92.27-8.27,6.68-2.46,9.13-.24,2.33,5.92-.27,8.27Z"/>
        <path class="st10" d="M234.08,328.05c2.59,2.35,2.71,6.05.27,8.27-2.45,2.22-6.54,2.11-9.13-.24s-2.71-6.05-.27-8.27c2.45-2.22,6.54-2.11,9.13.24Z"/>
      </g>
    </g>
  </g>
  <g>
    <circle class="st2" cx="345.05" cy="331.68" r="18.83"/>
    <g>
      <g>
        <polygon class="st7" points="355.32 333.07 344.94 343.37 335.34 333.84 345.72 323.54 355.32 333.07"/>
        <ellipse class="st7" cx="350.54" cy="328.65" rx="7.46" ry="7.03" transform="translate(-129.76 314.49) rotate(-41.47)"/>
        <ellipse class="st7" cx="339.6" cy="328.87" rx="7.03" ry="7.46" transform="translate(-131.71 365.58) rotate(-48.53)"/>
      </g>
      <g>
        <polygon class="st9" points="354.63 335.12 345.13 343.73 336.28 335.71 345.78 327.11 354.63 335.12"/>
        <path class="st9" d="M354.5,335.26c-2.59,2.35-6.68,2.46-9.13.24s-2.33-5.92.27-8.27,6.68-2.46,9.13-.24,2.33,5.92-.27,8.27Z"/>
        <path class="st9" d="M344.78,327.41c2.59,2.35,2.71,6.05.27,8.27-2.45,2.22-6.54,2.11-9.13-.24s-2.71-6.05-.27-8.27c2.45-2.22,6.54-2.11,9.13.24Z"/>
      </g>
    </g>
  </g>
  <g>
    <circle class="st1" cx="291.73" cy="409.91" r="18.83"/>
    <g>
      <g>
        <polygon class="st5" points="302 411.3 291.62 421.6 282.02 412.07 292.4 401.77 302 411.3"/>
        <ellipse class="st5" cx="297.22" cy="406.88" rx="7.46" ry="7.03" transform="translate(-194.93 298.79) rotate(-41.47)"/>
        <ellipse class="st5" cx="286.28" cy="407.1" rx="7.03" ry="7.46" transform="translate(-208.34 352.05) rotate(-48.53)"/>
      </g>
      <g>
        <polygon class="st11" points="301.31 413.35 291.81 421.96 282.96 413.94 292.46 405.34 301.31 413.35"/>
        <path class="st11" d="M301.18,413.49c-2.59,2.35-6.68,2.46-9.13.24-2.45-2.22-2.33-5.92.27-8.27s6.68-2.46,9.13-.24,2.33,5.92-.27,8.27Z"/>
        <path class="st11" d="M291.46,405.64c2.59,2.35,2.71,6.05.27,8.27-2.45,2.22-6.54,2.11-9.13-.24s-2.71-6.05-.27-8.27c2.45-2.22,6.54-2.11,9.13.24Z"/>
      </g>
    </g>
  </g>
  <g>
    <circle class="st2" cx="234.35" cy="471.64" r="18.83"/>
    <g>
      <g>
        <polygon class="st7" points="244.62 473.03 234.25 483.33 224.64 473.8 235.02 463.5 244.62 473.03"/>
        <ellipse class="st7" cx="239.84" cy="468.61" rx="7.46" ry="7.03" transform="translate(-250.18 276.27) rotate(-41.47)"/>
        <ellipse class="st7" cx="228.9" cy="468.82" rx="7.03" ry="7.46" transform="translate(-273.99 329.91) rotate(-48.53)"/>
      </g>
      <g>
        <polygon class="st9" points="243.93 475.08 234.43 483.69 225.59 475.67 235.09 467.07 243.93 475.08"/>
        <path class="st9" d="M243.8,475.22c-2.59,2.35-6.68,2.46-9.13.24-2.45-2.22-2.33-5.92.27-8.27s6.68-2.46,9.13-.24,2.33,5.92-.27,8.27Z"/>
        <path class="st9" d="M234.08,467.37c2.59,2.35,2.71,6.05.27,8.27-2.45,2.22-6.54,2.11-9.13-.24s-2.71-6.05-.27-8.27,6.54-2.11,9.13.24Z"/>
      </g>
    </g>
  </g>
  <g>
    <circle class="st0" cx="348.87" cy="472.48" r="18.83"/>
    <g>
      <g>
        <polygon class="st8" points="359.14 473.88 348.76 484.18 339.16 474.65 349.54 464.35 359.14 473.88"/>
        <ellipse class="st8" cx="354.36" cy="469.45" rx="7.46" ry="7.03" transform="translate(-222.04 352.31) rotate(-41.47)"/>
        <ellipse class="st8" cx="343.42" cy="469.67" rx="7.03" ry="7.46" transform="translate(-235.93 416.01) rotate(-48.53)"/>
      </g>
      <g>
        <polygon class="st10" points="358.45 475.93 348.95 484.53 340.1 476.52 349.6 467.91 358.45 475.93"/>
        <path class="st10" d="M358.32,476.06c-2.59,2.35-6.68,2.46-9.13.24-2.45-2.22-2.33-5.92.27-8.27s6.68-2.46,9.13-.24,2.33,5.92-.27,8.27Z"/>
        <path class="st10" d="M348.6,468.21c2.59,2.35,2.71,6.05.27,8.27-2.45,2.22-6.54,2.11-9.13-.24s-2.71-6.05-.27-8.27,6.54-2.11,9.13.24Z"/>
      </g>
    </g>
  </g>
</svg>