<?xml version="1.0" encoding="UTF-8"?>
<svg id="Layer_1" xmlns="http://www.w3.org/2000/svg" version="1.1" viewBox="0 0 595.28 841.89">
  <!-- Generator: Adobe Illustrator 29.8.1, SVG Export Plug-In . SVG Version: 2.1.1 Build 2)  -->
  <defs>
    <style>
      .st0 {
        stroke: #a7a9ac;
      }

      .st0, .st1 {
        fill: #a7a9ac;
        stroke-miterlimit: 10;
      }

      .st1 {
        stroke: #c4c6c8;
      }

      .st2 {
        fill: #8f9194;
      }
    </style>
  </defs>
  <path class="st1" d="M382.22,147h-180.98c-9.39,0-17.01,7.61-17.01,17.01v335.98c0,9.39,7.61,17.01,17.01,17.01h180.98c9.39,0,17.01-7.61,17.01-17.01V164.01c0-9.39-7.61-17.01-17.01-17.01ZM233.94,490.46c-10.4,0-18.83-8.43-18.83-18.83s8.43-18.83,18.83-18.83,18.83,8.43,18.83,18.83-8.43,18.83-18.83,18.83ZM233.94,351.15c-10.4,0-18.83-8.43-18.83-18.83s8.43-18.83,18.83-18.83,18.83,8.43,18.83,18.83-8.43,18.83-18.83,18.83ZM233.94,211.19c-10.4,0-18.83-8.43-18.83-18.83s8.43-18.83,18.83-18.83,18.83,8.43,18.83,18.83-8.43,18.83-18.83,18.83ZM291.4,243.43c10.4,0,18.83,8.43,18.83,18.83s-8.43,18.83-18.83,18.83-18.83-8.43-18.83-18.83,8.43-18.83,18.83-18.83h0ZM292.05,428.66c-10.4,0-18.83-8.43-18.83-18.83s8.43-18.83,18.83-18.83,18.83,8.43,18.83,18.83-8.43,18.83-18.83,18.83ZM348.87,491.11c-10.4,0-18.83-8.43-18.83-18.83s8.43-18.83,18.83-18.83,18.83,8.43,18.83,18.83-8.43,18.83-18.83,18.83ZM326.22,331.68c0-10.4,8.43-18.83,18.83-18.83s18.83,8.43,18.83,18.83-8.43,18.83-18.83,18.83-18.83-8.43-18.83-18.83ZM349.51,210.55c-10.4,0-18.83-8.43-18.83-18.83s8.43-18.83,18.83-18.83,18.83,8.43,18.83,18.83-8.43,18.83-18.83,18.83Z"/>
  <g>
    <path class="st2" d="M295.84,281.96c-3.47,1.08-7.72,1.42-11.24.27v108.68c1.95-.68,4.04-1.07,6.22-1.07,2.41,0,4.7.47,6.82,1.29v-110.15c-.52.43-1.13.78-1.8.99h0Z"/>
    <path class="st2" d="M295.66,430.27c-3.85.37-7.53-.31-11.06-1.78v87.99h13.04v-86.73c-.61.27-1.28.45-1.98.52h0Z"/>
    <path class="st2" d="M290.82,242.68c2.41,0,4.7.47,6.82,1.29v-96.46h-13.04v96.24c1.95-.68,4.04-1.07,6.22-1.07h0Z"/>
  </g>
  <path class="st0" d="M291.12,238.33c-12.95,0-23.45,10.73-23.45,23.96s10.5,23.96,23.45,23.96,23.45-10.73,23.45-23.96-10.5-23.96-23.45-23.96h0ZM291.12,281.09c-10.4,0-18.83-8.43-18.83-18.83s8.43-18.83,18.83-18.83,18.83,8.43,18.83,18.83-8.43,18.83-18.83,18.83Z"/>
  <path class="st0" d="M291.12,385.94c-12.95,0-23.45,10.73-23.45,23.96s10.5,23.96,23.45,23.96,23.45-10.73,23.45-23.96-10.5-23.96-23.45-23.96ZM291.73,428.7c-10.4,0-18.83-8.43-18.83-18.83s8.43-18.83,18.83-18.83,18.83,8.43,18.83,18.83-8.43,18.83-18.83,18.83Z"/>
</svg>